<svg xmlns="http://www.w3.org/2000/svg" viewBox="0 0 240 80">
  <defs>
    <linearGradient id="hg" x1="0%" y1="0%" x2="100%" y2="100%">
      <stop offset="0%" style="stop-color:#FFD700"/>
      <stop offset="100%" style="stop-color:#FFA500"/>
    </linearGradient>
  </defs>
  <g transform="translate(8, 8)">
    <path d="M12 4 L28 4 L28 8 C28 16 22 22 20 24 L20 32 L12 32 L12 24 C10 22 4 16 4 8 L4 4 Z" fill="url(#hg)" opacity="0.9"/>
    <rect x="10" y="32" width="12" height="3" rx="1" fill="url(#hg)" opacity="0.7"/>
    <rect x="8" y="35" width="16" height="3" rx="1" fill="url(#hg)" opacity="0.5"/>
    <path d="M4 8 C0 8 -2 12 0 16 C1 18 4 18 4 16" fill="none" stroke="url(#hg)" stroke-width="1.5" opacity="0.6"/>
    <path d="M28 8 C32 8 34 12 32 16 C31 18 28 18 28 16" fill="none" stroke="url(#hg)" stroke-width="1.5" opacity="0.6"/>
  </g>
  <text x="44" y="22" fill="url(#hg)" font-size="10" font-weight="bold" font-family="Arial, sans-serif" letter-spacing="2">FIFA</text>
  <text x="44" y="36" fill="white" font-size="9" font-family="Arial, sans-serif" letter-spacing="1.5" opacity="0.9">WORLD CUP</text>
  <text x="130" y="42" fill="url(#hg)" font-size="36" font-weight="bold" font-family="Arial, sans-serif">26</text>
  <text x="176" y="18" fill="url(#hg)" font-size="7" font-family="Arial, sans-serif" opacity="0.7">™</text>
  <text x="44" y="52" fill="white" font-size="7" font-family="Arial, sans-serif" opacity="0.6">USA • MEXICO • CANADA</text>
</svg>
