<svg xmlns="http://www.w3.org/2000/svg" viewBox="0 0 200 240">
  <defs>
    <linearGradient id="bg" x1="0%" y1="0%" x2="100%" y2="100%">
      <stop offset="0%" style="stop-color:#001B44"/>
      <stop offset="100%" style="stop-color:#002855"/>
    </linearGradient>
    <linearGradient id="gd" x1="0%" y1="0%" x2="100%" y2="100%">
      <stop offset="0%" style="stop-color:#FFD700"/>
      <stop offset="100%" style="stop-color:#FFA500"/>
    </linearGradient>
  </defs>
  <circle cx="100" cy="100" r="95" fill="url(#bg)" stroke="url(#gd)" stroke-width="2"/>
  <text x="100" y="42" text-anchor="middle" fill="url(#gd)" font-size="14" font-weight="bold" font-family="Arial, sans-serif" letter-spacing="3">FIFA</text>
  <text x="100" y="60" text-anchor="middle" fill="white" font-size="11" font-family="Arial, sans-serif" letter-spacing="2" opacity="0.9">WORLD CUP</text>
  <text x="100" y="108" text-anchor="middle" fill="url(#gd)" font-size="56" font-weight="bold" font-family="Arial, sans-serif">26</text>
  <text x="148" y="75" fill="url(#gd)" font-size="8" font-family="Arial, sans-serif" opacity="0.7">™</text>
  <g transform="translate(75, 120)">
    <path d="M10 0 L40 0 L40 8 C40 22 30 30 25 34 L25 48 L25 50 L10 50 L10 48 L10 34 C5 30 -5 22 -5 8 L-5 0 Z" fill="url(#gd)" opacity="0.85"/>
    <rect x="8" y="50" width="24" height="5" rx="2" fill="url(#gd)" opacity="0.7"/>
    <rect x="4" y="55" width="32" height="5" rx="2" fill="url(#gd)" opacity="0.5"/>
    <path d="M-5 8 C-14 8 -18 16 -14 24 C-12 28 -5 28 -5 22" fill="none" stroke="url(#gd)" stroke-width="2" opacity="0.6"/>
    <path d="M40 8 C50 8 54 16 50 24 C48 28 40 28 40 22" fill="none" stroke="url(#gd)" stroke-width="2" opacity="0.6"/>
    <polygon points="17.5,12 19,16 23,16 20,19 21,23 17.5,20.5 14,23 15,19 12,16 16,16" fill="#001B44" opacity="0.6"/>
  </g>
  <text x="100" y="195" text-anchor="middle" fill="white" font-size="9" font-family="Arial, sans-serif" opacity="0.8">UNITED STATES</text>
  <text x="100" y="210" text-anchor="middle" fill="white" font-size="9" font-family="Arial, sans-serif" opacity="0.8">MEXICO • CANADA</text>
  <circle cx="40" cy="225" r="2" fill="url(#gd)" opacity="0.3"/>
  <circle cx="60" cy="228" r="2" fill="url(#gd)" opacity="0.3"/>
  <circle cx="80" cy="229" r="2" fill="url(#gd)" opacity="0.3"/>
  <circle cx="100" cy="230" r="2" fill="url(#gd)" opacity="0.3"/>
  <circle cx="120" cy="229" r="2" fill="url(#gd)" opacity="0.3"/>
  <circle cx="140" cy="228" r="2" fill="url(#gd)" opacity="0.3"/>
  <circle cx="160" cy="225" r="2" fill="url(#gd)" opacity="0.3"/>
</svg>
