<svg xmlns="http://www.w3.org/2000/svg" viewBox="0 0 400 300" fill="none">
  <circle cx="200" cy="120" r="90" fill="#FFD700"/>
  <circle cx="200" cy="120" r="85" fill="#FFD700" stroke="#E6C200" stroke-width="2"/>
  <path d="M175 90 h50 v5 c0 20 -10 35 -25 40 c-15 -5 -25 -20 -25 -40 v-5z" fill="white"/>
  <path d="M170 90 c-10 0 -15 10 -12 20 c2 8 10 12 17 10" fill="none" stroke="white" stroke-width="3" stroke-linecap="round"/>
  <path d="M230 90 c10 0 15 10 12 20 c-2 8 -10 12 -17 10" fill="none" stroke="white" stroke-width="3" stroke-linecap="round"/>
  <rect x="195" y="135" width="10" height="15" fill="white"/>
  <rect x="182" y="150" width="36" height="8" rx="2" fill="white"/>
  <polygon points="200,95 203,103 211,103 205,108 207,116 200,112 193,116 195,108 189,103 197,103" fill="#FFD700"/>
  <text x="200" y="80" text-anchor="middle" font-family="Arial, sans-serif" font-weight="900" font-size="28" fill="white">26</text>
  <text x="200" y="250" text-anchor="middle" font-family="Arial, sans-serif" font-weight="700" font-size="36" fill="white">كأس العالم</text>
  <text x="200" y="280" text-anchor="middle" font-family="Arial, sans-serif" font-weight="600" font-size="16" fill="white" opacity="0.8">FIFA WORLD CUP</text>
</svg>