<svg xmlns="http://www.w3.org/2000/svg" viewBox="0 0 400 300" fill="none">
  <rect width="400" height="300" rx="16" fill="#002868"/>
  <circle cx="200" cy="115" r="85" fill="#FFD700"/>
  <path d="M177 88 h46 v5 c0 18 -9 32 -23 37 c-14 -5 -23 -19 -23 -37 v-5z" fill="#002868"/>
  <path d="M172 88 c-9 0 -14 9 -11 18 c2 7 9 11 15 9" fill="none" stroke="#002868" stroke-width="3" stroke-linecap="round"/>
  <path d="M228 88 c9 0 14 9 11 18 c-2 7 -9 11 -15 9" fill="none" stroke="#002868" stroke-width="3" stroke-linecap="round"/>
  <rect x="196" y="130" width="8" height="14" fill="#002868"/>
  <rect x="184" y="144" width="32" height="7" rx="2" fill="#002868"/>
  <polygon points="200,92 203,100 210,100 204,105 206,113 200,109 194,113 196,105 190,100 197,100" fill="#FFD700"/>
  <text x="200" y="78" text-anchor="middle" font-family="Arial, sans-serif" font-weight="900" font-size="26" fill="#002868">26</text>
  <text x="200" y="248" text-anchor="middle" font-family="Arial, sans-serif" font-weight="700" font-size="34" fill="white">كأس العالم</text>
  <text x="200" y="278" text-anchor="middle" font-family="Arial, sans-serif" font-weight="600" font-size="14" fill="white" opacity="0.8">FIFA WORLD CUP</text>
</svg>
